# xmcd
#
# Track frame offsets:
#	150
#	17550
#	34270
#	44587
#	55332
#	67105
#	78275
#	88555
#	100742
#	114375
#	125847
#	136342
#	151975
#	163052
#	174995
#	187170
#	197490
#	209945
#	221810
#	231582
#	243932
#	254250
#	265025
#	275082
#	285815
#	296670
#	317945
#
# Disc length: 4432 seconds
#
# Revision: 1
# Processed by: cddbd v1.5.1PL0 Copyright (c) Steve Scherf et al.
# Submitted via: CDex 1.50Beta5
#
DISCID=9f114e1b
DTITLE=ひまわりキッズ - NHK みんなのうた 最新ベスト Disc 2
DYEAR=2002
DGENRE=Soundtrack
TTITLE0=大和田りつこ/チュンチュンワールド〜おげんきたいそう〜
TTITLE1=塩野雅子/きっと しあわせ
TTITLE2=新倉芳美/メトロポリタン美術館
TTITLE3=宮本浩次(エレファントカシマシ)/はじめての僕デス
TTITLE4=西六郷少年少女合唱団/トレロ・カモミロ
TTITLE5=五百木佑野/おふろのうた
TTITLE6=増田直美/恋するニワトリ
TTITLE7=春口雅子/やさしさの玉手箱
TTITLE8=少年少女合唱団みずうみ/星うらないキラキラ
TTITLE9=たいらいさお/天使の羽のマーチ
TTITLE10=津田依子/リンゴの森の子猫たち
TTITLE11=広野ゆき/一円玉の旅がらす
TTITLE12=滝沢侑子/川はだれのもの?
TTITLE13=パル/ビューティフル・ネーム
TTITLE14=ペギー葉山/小さな木の実
TTITLE15=増田直美/ラジャ・マハラジャー
TTITLE16=市瀬俊宗/ヒロミ
TTITLE17=杉並児童合唱団/マヌエロ
TTITLE18=クニ河内/ドラキュラのうた
TTITLE19=福村亮治/くまのぬいぐるみ
TTITLE20=竹田えり/走れジョリィ
TTITLE21=水森亜土/いたずラッコ
TTITLE22=足立和枝/パンダ・ダ・パ・ヤッ
TTITLE23=塩野雅子/は・じ・め・て
TTITLE24=松尾香/ふりむけばカエル
TTITLE25=Toi et Moi 21’/YAKUSOKU-父に送る手紙-
TTITLE26=神野美伽/2002年ばあちゃん音頭
EXTD=
EXTT0=
EXTT1=
EXTT2=
EXTT3=
EXTT4=
EXTT5=
EXTT6=
EXTT7=
EXTT8=
EXTT9=
EXTT10=
EXTT11=
EXTT12=
EXTT13=
EXTT14=
EXTT15=
EXTT16=
EXTT17=
EXTT18=
EXTT19=
EXTT20=
EXTT21=
EXTT22=
EXTT23=
EXTT24=
EXTT25=
EXTT26=
PLAYORDER=
